<?xml version="1.0" standalone="no"?><!DOCTYPE svg PUBLIC "-//W3C//DTD SVG 1.1//EN" "http://www.w3.org/Graphics/SVG/1.1/DTD/svg11.dtd"><svg t="1581486722522" class="icon" viewBox="0 0 1024 1024" version="1.1" xmlns="http://www.w3.org/2000/svg" p-id="9971" width="32" height="32" xmlns:xlink="http://www.w3.org/1999/xlink"><defs><style type="text/css"></style></defs><path d="M944.891806 393.702106a63.039389 63.039389 0 1 0-126.110778 0.063999v264.093442a63.359386 63.359386 0 0 0 63.263387 63.135388 63.295387 63.295387 0 0 0 62.97539-63.135388v-264.541437h-0.415996zM230.114731 342.6946l0.159998 409.596032c0 37.759634 30.047709 67.839343 67.10335 67.839343h45.343561v139.934644c0 34.975661 28.159727 63.231387 62.719392 63.231388s62.591394-28.159727 63.135389-62.623394v-139.934644H553.599597v139.934644a62.94339 62.94339 0 1 0 125.95078-0.319996v-139.934645h45.983554c37.11964 0 67.10335-30.303706 67.10335-67.327348v-410.876019l-562.714548 0.479995z m411.644012-124.990789a23.871769 23.871769 0 1 1-0.063999-47.743537 23.871769 23.871769 0 0 1 0.063999 47.743537z m-258.557495 0a23.871769 23.871769 0 1 1 0-47.711538c13.247872 0 23.903768 10.879895 23.903768 24.319765s-10.751896 24.191766-24.319764 24.191765z m267.933404-122.942809L695.038227 14.089784c2.559975-4.479957 0.607994-9.631907-3.231969-12.159883a9.343909 9.343909 0 0 0-12.127882 3.839963l-44.799566 81.055215c-37.023641-17.279833-79.199233-26.87974-123.294806-26.87974s-86.111166 9.183911-123.390805 25.727751L344.065627 4.489877a8.767915 8.767915 0 0 0-11.871885-3.423967c-4.255959 1.919981-5.791944 7.679926-3.423967 11.519888l43.935574 79.999225C286.082189 137.25659 227.650755 222.279767 227.650755 320.00682h568.666491c0-97.695054-58.367435-182.75023-144.894597-227.421797zM142.083584 330.34272A63.263387 63.263387 0 0 0 78.948195 393.606107v264.189441c0 34.975661 28.319726 63.135388 63.327387 63.135388a63.039389 63.039389 0 0 0 63.007389-63.135388v-264.093442c0-34.783663-28.159727-63.071389-62.719392-63.071389z" fill="#A4C639" p-id="9972"></path></svg>