<?xml version="1.0" standalone="no"?><!DOCTYPE svg PUBLIC "-//W3C//DTD SVG 1.1//EN" "http://www.w3.org/Graphics/SVG/1.1/DTD/svg11.dtd"><svg t="1581498364156" class="icon" viewBox="0 0 1024 1024" version="1.1" xmlns="http://www.w3.org/2000/svg" p-id="27118" width="48" height="48" xmlns:xlink="http://www.w3.org/1999/xlink"><defs><style type="text/css"></style></defs><path d="M170.666667 85.333333h682.666666c23.466667 0 42.666667 19.2 42.666667 42.666667v822.613333c0 11.946667-9.386667 21.333333-21.333333 21.333334-2.986667 0-5.973333-0.426667-8.533334-1.706667l-354.133333-157.866667-354.133333 157.866667c-10.666667 4.693333-23.466667 0-28.16-10.666667-1.28-2.56-1.706667-5.546667-1.706667-8.533333V128c0-23.466667 19.2-42.666667 42.666667-42.666667z m640 766.293334V170.666667H213.333333v680.96l298.666667-133.12 298.666667 133.12zM512 576l-125.44 65.706667 23.893333-139.52-101.546666-98.56 140.373333-20.48L512 256l62.72 127.146667 140.373333 20.48-101.546666 98.986666 23.893333 139.52L512 576z" p-id="27119" fill="#2c2c2c"></path></svg>