<?xml version="1.0" standalone="no"?><!DOCTYPE svg PUBLIC "-//W3C//DTD SVG 1.1//EN" "http://www.w3.org/Graphics/SVG/1.1/DTD/svg11.dtd"><svg t="1581406061309" class="icon" viewBox="0 0 1024 1024" version="1.1" xmlns="http://www.w3.org/2000/svg" p-id="38721" data-spm-anchor-id="a313x.7781069.0.i46" xmlns:xlink="http://www.w3.org/1999/xlink" width="200" height="200"><defs><style type="text/css"></style></defs><path d="M711.1 661.3h199.1c15.7 0 28.4 12.7 28.4 28.4v14.2c0 15.7-12.7 28.4-28.4 28.4H711.1v-71z m0 142.7v-0.4h256c15.7 0 28.4 12.7 28.4 28.4v14.2c0 15.7-12.7 28.4-28.4 28.4H85.4c-31.4 0-57-25.5-57-56.9V206.3c0-31.5 25.5-56.9 57-56.9h270.1v0.1h21.6c15.7 0 35.7 10.3 44.8 23.2l64 90.5h360.2c19.6 0 35.6 15.8 35.6 35.6v305.8h-71.1V334.2h-711v469.7l611.5 0.1z" p-id="38722" data-spm-anchor-id="a313x.7781069.0.i47" class="selected" fill="#2a2b2f"></path></svg>