<?xml version="1.0" standalone="no"?><!DOCTYPE svg PUBLIC "-//W3C//DTD SVG 1.1//EN" "http://www.w3.org/Graphics/SVG/1.1/DTD/svg11.dtd"><svg t="1581484965692" class="icon" viewBox="0 0 1024 1024" version="1.1" xmlns="http://www.w3.org/2000/svg" p-id="2780" width="32" height="32" xmlns:xlink="http://www.w3.org/1999/xlink"><defs><style type="text/css"></style></defs><path d="M237.354667 432h506.666666a33.792 33.792 0 0 1 33.749334 33.792v287.104a33.792 33.792 0 0 1-33.749334 33.749333H237.354667v84.48a16.896 16.896 0 0 0 16.853333 16.853334h574.250667a16.896 16.896 0 0 0 16.853333-16.853334V372.48l-7.978667-8.021333h-100.138666a77.653333 77.653333 0 0 1-77.653334-77.653334V185.514667l-6.826666-6.826667h-398.506667a16.896 16.896 0 0 0-16.896 16.853333v236.458667z m-50.688 354.688H119.125333A33.792 33.792 0 0 1 85.333333 752.853333v-287.146666a33.792 33.792 0 0 1 33.792-33.749334h67.541334V195.541333C186.666667 158.293333 216.917333 128 254.208 128h419.626667L896 351.573333v519.552C896 908.373333 865.749333 938.666667 828.458667 938.666667H254.208a67.541333 67.541333 0 0 1-67.541333-67.541334v-84.48z" fill="#FF8332" p-id="2781"></path><path d="M157.269333 508.288h90.026667c52.266667 0 78.72 22.186667 78.72 66.56 0 44.672-26.453333 67.2-79.36 67.2H192.853333V725.333333h-35.584v-217.045333z m35.584 30.378667v72.96H244.48c15.786667 0 27.349333-3.029333 34.645333-8.533334 7.296-5.76 10.965333-15.146667 10.965334-28.245333 0-13.056-3.968-22.186667-11.264-27.648-7.253333-5.802667-18.816-8.533333-34.346667-8.533333H192.853333z m163.541334-30.378667h90.026666c52.266667 0 78.72 22.186667 78.72 66.56 0 44.672-26.453333 67.2-79.36 67.2H391.978667V725.333333h-35.584v-217.045333z m35.584 30.378667v72.96h51.669333c15.786667 0 27.349333-3.029333 34.645333-8.533334 7.296-5.76 10.965333-15.146667 10.965334-28.245333 0-13.056-3.968-22.186667-11.264-27.648-7.253333-5.802667-18.858667-8.533333-34.346667-8.533333H391.978667z m146.816-30.378667h177.834666v30.378667H645.546667V725.333333h-35.584v-186.666666h-71.125334v-30.378667z" fill="#FFFFFF" p-id="2782"></path></svg>