<?xml version="1.0" standalone="no"?><!DOCTYPE svg PUBLIC "-//W3C//DTD SVG 1.1//EN" "http://www.w3.org/Graphics/SVG/1.1/DTD/svg11.dtd"><svg t="1581498182881" class="icon" viewBox="0 0 1025 1024" version="1.1" xmlns="http://www.w3.org/2000/svg" p-id="13210" width="48.046875" height="48" xmlns:xlink="http://www.w3.org/1999/xlink"><defs><style type="text/css"></style></defs><path d="M892.75625 962L131.24375 962C92.99375 962 62 933.2 62 897.70625l0-675c0-35.49375 30.99375-64.29375 69.24375-64.29375l34.59375 0 0 96.4125c0 35.49375 30.99375 64.29375 69.24375 64.29375l69.24375 0c38.25 0 69.24375-28.8 69.24375-64.29375L373.56875 158.4125l276.91875 0 0 96.4125c0 35.49375 30.99375 64.29375 69.24375 64.29375l69.24375 0c38.25 0 69.24375-28.8 69.24375-64.29375L858.21875 158.4125l34.59375 0c38.25 0 69.24375 28.8 69.24375 64.29375l0 675C962 933.2 931.00625 962 892.75625 962zM892.75625 383.4125L131.24375 383.4125l0 514.29375 761.5125 0L892.75625 383.4125zM616.9625 571.56875c-19.2375 16.0875-45 30.54375-57.88125 49.275-15.6375 22.78125-18.225 38.1375-27.28125 66.09375-7.2 21.76875-12.0375 53.49375-14.5125 83.19375L441.8 770.13125c5.9625-41.34375 15.3-82.0125 28.06875-109.96875 12.76875-27.95625 32.9625-52.875 60.58125-84.76875L406.7 575.39375 406.7 510.9875l210.2625 0L616.9625 571.56875zM754.325 287c-38.25 0-69.24375-28.8-69.24375-64.29375L685.08125 126.29375C685.08125 90.8 716.075 62 754.325 62c38.25 0 69.24375 28.8 69.24375 64.29375l0 96.4125C823.5125 258.2 792.51875 287 754.325 287zM269.675 287c-38.25 0-69.24375-28.8-69.24375-64.29375L200.43125 126.29375C200.4875 90.8 231.48125 62 269.675 62c38.25 0 69.24375 28.8 69.24375 64.29375l0 96.4125C338.91875 258.2 307.925 287 269.675 287z" fill="#2c2c2c" p-id="13211"></path></svg>