<?xml version="1.0" standalone="no"?><!DOCTYPE svg PUBLIC "-//W3C//DTD SVG 1.1//EN" "http://www.w3.org/Graphics/SVG/1.1/DTD/svg11.dtd"><svg t="1581498296799" class="icon" viewBox="0 0 1024 1024" version="1.1" xmlns="http://www.w3.org/2000/svg" p-id="19049" width="48" height="48" xmlns:xlink="http://www.w3.org/1999/xlink"><defs><style type="text/css"></style></defs><path d="M621.03391361 712.46305921c1.86327892-1.15651735 22.29509013-13.94246295 28.27043199-17.54051842 11.05116909-6.68210239 20.17480748-11.69367894 29.29844691-15.8057408 64.12247893-29.1699456 120.66334082-8.54538026 195.45148163 78.83595307 46.26070619 54.09932586 59.94616426 102.09480746 42.08439254 144.82170985-13.29995306 31.93273706-38.93609383 53.97082346-84.55429015 81.21323948-2.9555456 1.73477653-29.23419627 17.02650983-35.98054932 21.20282349-106.2068704 65.53600001-349.65383571-84.49003947-524.73775681-340.85145176-175.53367893-257.00392107-220.95912107-531.03435306-113.33872961-597.53411732l14.19946667-8.99513708 15.42023574-10.02315303C241.56762347 12.5771296 276.3916544-1.49383574 317.70503574 5.50952107c41.24912958 7.06760746 76.33016426 37.58682341 106.01411734 93.16392214 62.5804544 117.57929388 48.76649387 173.3491456-31.739984 224.04316906-5.78258773 3.7265568-26.34290241 16.12699628-28.27043201 17.34776426-19.72505069 12.20768639 13.68545921 93.999184 91.36489387 207.72341974 78.64320001 115.00925439 144.37195306 177.91096427 165.89603199 164.67526292z" fill="#2c2c2c" p-id="19050"></path></svg>