<?xml version="1.0" standalone="no"?><!DOCTYPE svg PUBLIC "-//W3C//DTD SVG 1.1//EN" "http://www.w3.org/Graphics/SVG/1.1/DTD/svg11.dtd"><svg t="1581498393102" class="icon" viewBox="0 0 1286 1024" version="1.1" xmlns="http://www.w3.org/2000/svg" p-id="28066" width="60.28125" height="48" xmlns:xlink="http://www.w3.org/1999/xlink"><defs><style type="text/css"></style></defs><path d="M867.364225 762.004983a104.593921 104.593921 0 0 1-102.04285-107.4001V365.823617a104.593921 104.593921 0 0 1 102.04285-107.144992h405.620329V107.4001A104.593921 104.593921 0 0 0 1173.492775 0H107.655207a104.593921 104.593921 0 0 0-102.04285 107.4001v805.628301a104.593921 104.593921 0 0 0 102.04285 107.400099H1173.492775a104.593921 104.593921 0 0 0 102.04285-107.400099v-151.023418z" fill="#2c2c2c" p-id="28067"></path><path d="M1192.880917 333.425012H931.651221A89.032387 89.032387 0 0 0 841.853513 422.457399v175.513702a89.032387 89.032387 0 0 0 89.032386 89.032387h261.995018a89.032387 89.032387 0 0 0 89.032386-89.032387v-175.513702a89.032387 89.032387 0 0 0-89.032386-89.032387z m-185.207773 240.566019a63.776781 63.776781 0 1 1 63.776781-63.776781 63.776781 63.776781 0 0 1-63.776781 63.776781z" fill="#8a8a8a" p-id="28068" data-spm-anchor-id="a313x.7781069.0.i42" class="selected"></path></svg>