<?xml version="1.0" standalone="no"?><!DOCTYPE svg PUBLIC "-//W3C//DTD SVG 1.1//EN" "http://www.w3.org/Graphics/SVG/1.1/DTD/svg11.dtd"><svg t="1581485015462" class="icon" viewBox="0 0 1024 1024" version="1.1" xmlns="http://www.w3.org/2000/svg" p-id="5264" width="32" height="32" xmlns:xlink="http://www.w3.org/1999/xlink"><defs><style type="text/css"></style></defs><path d="M622.08 543.744h223.744v64h-223.744zM622.08 671.744h223.744v64h-223.744zM622.08 415.744h223.744v64.512h-223.744zM559.104 302.08H47.104v512h512V302.08z m-165.888 367.616H340.48c-17.408-58.88-29.184-98.816-35.84-119.808 0-1.024-0.512-2.048-1.536-3.584-2.048-11.776-3.072-20.48-3.072-25.6h-1.536c0 1.536-0.512 4.096-1.536 7.68-1.024 9.216-2.56 16.384-5.12 21.504-7.68 21.504-20.48 61.44-39.424 119.808H200.704L119.296 474.112h55.808c22.016 64.512 36.352 106.496 44.032 124.928 2.048 6.656 4.096 14.336 6.656 23.04 2.048-8.704 4.096-16.384 6.656-23.04 8.704-25.6 21.504-67.072 37.376-124.928h55.808c22.016 73.216 33.792 114.688 35.84 124.928 2.048 6.656 4.096 14.336 6.656 23.04 2.048-8.704 4.096-16.384 6.656-23.04 9.728-25.6 26.112-67.072 49.152-124.928h55.808l-86.528 195.584z" fill="#2C97FF" p-id="5265"></path><path d="M927.744 198.656L805.376 76.8c-27.136-27.136-81.408-49.664-120.32-49.664h-409.6c-40.448 0-73.216 32.768-73.216 73.216v142.848h65.024V100.352c0-4.608 4.096-8.704 8.704-8.704h409.6c2.56 0 5.632 0 8.704 0.512v218.112h217.6c0.512 8.704 1.024 26.624 1.024 30.72v582.656c0 4.608-4.096 8.704-8.704 8.704H275.968c-5.12 0-8.704-3.584-8.704-8.704v-50.688H202.24v50.688c0 40.448 32.768 73.216 73.216 73.216h628.224c40.448 0 73.216-32.768 73.216-73.216V340.992c0-36.352-20.992-114.176-49.152-142.336z m-168.96 46.592V121.344l1.024 1.024 121.344 121.856 1.024 1.024h-123.392z" fill="#2C97FF" p-id="5266"></path></svg>