<?xml version="1.0" standalone="no"?><!DOCTYPE svg PUBLIC "-//W3C//DTD SVG 1.1//EN" "http://www.w3.org/Graphics/SVG/1.1/DTD/svg11.dtd"><svg t="1581483324940" class="icon" viewBox="0 0 1024 1024" version="1.1" xmlns="http://www.w3.org/2000/svg" p-id="5292" width="32" height="32" xmlns:xlink="http://www.w3.org/1999/xlink"><defs><style type="text/css"></style></defs><path d="M1016.185263 177.583158a18.593684 18.593684 0 0 0 0-6.467369 34.492632 34.492632 0 0 0-0.538947-9.431578 21.557895 21.557895 0 0 0-4.850527-7.27579 22.635789 22.635789 0 0 0-6.467368-4.850526 29.911579 29.911579 0 0 0-11.587368-2.425263H662.096842a26.947368 26.947368 0 0 0-11.856842 2.155789h-1.616842a29.642105 29.642105 0 0 0-6.736842 4.581053 19.132632 19.132632 0 0 0-2.694737 3.772631 14.282105 14.282105 0 0 0-2.964211 4.042106L346.812632 789.018947 75.452632 197.793684h270.821052l101.052632 220.16a26.947368 26.947368 0 0 0 24.522105 15.629474 26.947368 26.947368 0 0 0 24.252632-37.99579l-107.789474-233.903157s-1.616842-1.886316-2.15579-2.964211a18.863158 18.863158 0 0 0-4.042105-5.389474 29.911579 29.911579 0 0 0-4.850526-4.850526 22.366316 22.366316 0 0 0-4.311579-2.425263 22.905263 22.905263 0 0 0-6.467368 0H32.875789L26.947368 144.976842a31.528421 31.528421 0 0 0-5.389473 0 18.863158 18.863158 0 0 0-2.694737 2.15579 19.941053 19.941053 0 0 0-5.658947 4.042105 18.054737 18.054737 0 0 0-2.425264 3.772631A29.103158 29.103158 0 0 0 8.353684 161.684211a21.018947 21.018947 0 0 0 0 5.928421 18.863158 18.863158 0 0 0 0 3.772631 19.402105 19.402105 0 0 0 0 5.12 38.265263 38.265263 0 0 0 0 5.389474L323.368421 864.471579a26.947368 26.947368 0 0 0 24.522105 15.629474 26.947368 26.947368 0 0 0 9.162106-2.15579 26.947368 26.947368 0 0 0 12.934736-12.934737L677.726316 197.793684H948.547368L677.187368 789.018947l-98.357894-213.962105a26.947368 26.947368 0 0 0-49.044211 22.63579l122.610526 266.778947a26.947368 26.947368 0 0 0 24.522106 15.629474h1.347368a35.031579 35.031579 0 0 0 8.892632-1.886316 25.330526 25.330526 0 0 0 12.665263-12.665263L1015.376842 182.164211a17.785263 17.785263 0 0 0 0.808421-4.581053z" p-id="5293" fill="#8a8a8a"></path></svg>