<?xml version="1.0" standalone="no"?><!DOCTYPE svg PUBLIC "-//W3C//DTD SVG 1.1//EN" "http://www.w3.org/Graphics/SVG/1.1/DTD/svg11.dtd"><svg t="1581484975622" class="icon" viewBox="0 0 1032 1024" version="1.1" xmlns="http://www.w3.org/2000/svg" p-id="1168" width="32.25" height="32" xmlns:xlink="http://www.w3.org/1999/xlink"><defs><style type="text/css"></style></defs><path d="M959.010578 1006.641714h-702.663412c-33.189043 0-60.267969-26.94006-60.267969-60.267968V72.071603c0-33.189043 26.94006-60.267969 60.267969-60.267969h545.744507c11.109303 0 20.135612 9.026309 20.135612 20.135612v150.669921h176.91565c11.109303 0 20.135612 9.026309 20.135611 20.135612v743.628967c0 33.189043-26.94006 60.267969-60.267968 60.267968z m-702.663412-954.566856c-11.109303 0-20.135612 9.026309-20.135612 20.135611v874.163277c0 11.109303 9.026309 20.135612 20.135612 20.135611h702.802278c11.109303 0 20.135612-9.026309 20.135612-20.135611V222.741524H801.952807c-11.109303 0-20.135612-9.026309-20.135611-20.135611V52.074858H256.347166z m0 0" fill="#9C27B0" p-id="1169"></path><path d="M999.559533 222.880391h-197.190127c-11.109303 0-20.135612-9.026309-20.135612-20.135612V31.939246c0-7.915378 4.582587-14.997559 11.803635-18.191484 7.082181-3.193925 15.553024-2.082994 21.385408 3.055059L837.919175 36.105235c0.277733 0.138866 0.277733 0.277733 0.555466 0.416598L1012.890697 187.469487c6.387849 5.415785 8.60971 14.303228 5.693518 22.218606-3.055058 7.915378-10.553838 13.192297-19.024682 13.192298z m-177.054515-40.271224h123.313262l-123.313262-106.788174v106.788174z m-137.199892 627.397885H35.272037c-12.636832 0-23.051804-10.276105-23.051804-23.051804V486.865202c0-12.636832 10.276105-23.051804 23.051804-23.051804h650.171955c12.636832 0 23.051804 10.276105 23.051804 23.051804v300.228912c-0.138866 12.497966-10.553838 22.912937-23.19067 22.912938z m0 0" fill="#9C27B0" p-id="1170"></path><path d="M81.236778 557.548142l41.937619 63.045294 41.937618-63.045294h35.688636l-60.267969 86.235964 64.295091 92.207215h-35.688635l-45.964741-69.016545L77.209656 735.991321H41.52102l63.739626-92.207215-59.712504-86.235964h35.688636zM252.736642 557.548142V710.995389h96.51207v24.995932h-125.535124V557.548142H252.736642zM483.94901 566.99105c12.497966 9.304041 19.719013 23.746135 21.524275 43.187415h-29.023054c-2.499593-10.970437-7.221047-19.024681-13.747763-23.746135-6.526715-4.999186-16.525088-7.221047-29.439653-7.221047-11.248169 0-19.719013 1.527529-25.690263 4.721454-7.498779 3.74939-10.970437 9.998373-10.970436 18.469216 0 7.498779 4.027122 13.747762 12.497965 18.191483 3.74939 1.944128 14.025495 5.693518 30.550583 10.970437 24.3016 7.498779 39.715758 13.47003 46.797939 17.497152 15.553024 9.304041 23.19067 21.940873 23.19067 38.465962 0 15.969623-6.248983 28.745321-18.746949 38.049362-12.497966 9.026309-30.272851 13.747762-53.046921 13.747763-21.940873 0-39.299159-4.304855-51.519393-12.775699-14.997559-10.553838-23.19067-26.94006-24.440466-49.71413h29.023054c1.944128 13.47003 6.804448 23.19067 14.442094 29.023054 6.943314 4.999186 17.774885 7.776512 32.494711 7.776512 13.053431 0 23.468402-2.221861 30.967182-6.526716 7.498779-4.443721 11.525902-10.276105 11.525902-17.774885 0-9.442908-5.693518-16.941687-16.802821-22.496338-3.471657-1.805262-14.997559-5.693518-34.716572-11.803634-21.940873-6.943314-35.688636-11.942501-40.965555-14.997559-13.747762-8.193111-20.55221-20.274478-20.55221-35.966369 0-15.69189 6.526715-28.189856 19.996745-37.216165 12.497966-8.748576 28.189856-13.053431 47.49227-13.053431 20.968809 0.277733 37.355031 4.443721 49.158666 13.192298zM557.964741 557.548142l41.937619 63.045294 41.937618-63.045294H677.66748l-60.267968 86.235964 64.295091 92.207215h-35.688636L599.90236 666.974776 553.937619 735.991321h-35.688636l63.739626-92.207215-59.712504-86.235964h35.688636z" fill="#FFFFFF" p-id="1171"></path></svg>