<?xml version="1.0" standalone="no"?><!DOCTYPE svg PUBLIC "-//W3C//DTD SVG 1.1//EN" "http://www.w3.org/Graphics/SVG/1.1/DTD/svg11.dtd"><svg t="1581485104925" class="icon" viewBox="0 0 1024 1024" version="1.1" xmlns="http://www.w3.org/2000/svg" p-id="2909" width="32" height="32" xmlns:xlink="http://www.w3.org/1999/xlink"><defs><style type="text/css"></style></defs><path d="M40.770707 695.832208h76.809101v77.355136L40.770707 695.832208z" fill="#F9B02D" p-id="2910"></path><path d="M928.625667 1024H153.982225a54.603626 54.603626 0 0 1-54.603626-54.603626V54.603626a54.603626 54.603626 0 0 1 54.603626-54.603626h585.168859a54.603626 54.603626 0 0 1 38.586563 16.017064L967.212229 205.491646a54.603626 54.603626 0 0 1 16.017064 38.586562v725.318166a54.603626 54.603626 0 0 1-54.603626 54.603626zM153.982225 36.402417a18.201209 18.201209 0 0 0-18.201208 18.201209v914.792748a18.201209 18.201209 0 0 0 18.201208 18.201209h774.643442a18.201209 18.201209 0 0 0 18.201208-18.201209V244.078208a18.201209 18.201209 0 0 0-5.27835-12.922858L752.073942 41.680768a18.201209 18.201209 0 0 0-12.922858-5.278351z" fill="#F9B02D" p-id="2911"></path><path d="M823.42268 327.621756H77.173125a36.402417 36.402417 0 0 0-36.402418 36.402417v331.261998h782.651973a36.402417 36.402417 0 0 0 36.402418-36.402417V364.024173a36.402417 36.402417 0 0 0-36.402418-36.402417zM313.788838 622.481337H140.877355v-30.578031L266.283683 436.829008H146.701742v-34.582296H313.788838V436.829008l-121.948099 152.344117h127.408461z m80.813366 0h-41.498756V402.246712h41.316744z m142.697476-84.999645h-46.049058v84.999645h-41.498756V402.246712h88.639887c45.503022 0 76.445076 25.481692 76.445076 66.798436 0 46.049058-34.400284 68.436545-77.719161 68.436544z" fill="#F9B02D" p-id="2912"></path><path d="M533.659438 435.554924h-42.408816v68.436544H532.203342c24.935656 0 40.224671-10.556701 40.224671-34.218272s-16.5631-34.218272-38.768575-34.218272zM754.258087 18.201209v178.371845a33.308212 33.308212 0 0 0 32.762176 33.308212h177.279773z" fill="#F9B02D" p-id="2913"></path></svg>