<?xml version="1.0" standalone="no"?><!DOCTYPE svg PUBLIC "-//W3C//DTD SVG 1.1//EN" "http://www.w3.org/Graphics/SVG/1.1/DTD/svg11.dtd"><svg t="1581405824689" class="icon" viewBox="0 0 1024 1024" version="1.1" xmlns="http://www.w3.org/2000/svg" p-id="32330" xmlns:xlink="http://www.w3.org/1999/xlink" width="200" height="200"><defs><style type="text/css"></style></defs><path d="M404.858 123.738l-21.429-21.495v300.915l21.429-21.494h-300.001l21.428 21.494v-300.914l-21.428 21.494h300.001zM83.428 80.75v343.902h342.858v-343.902h-342.858zM404.858 639.592l-21.429-21.494v300.915l21.429-21.495h-257.018c-11.913 0-21.553-9.668-21.553-21.621v-257.8l-21.428 21.494h300zM83.428 596.604v279.294c0 35.697 28.833 64.609 64.412 64.609h278.446v-343.903h-342.858zM876.16 123.738c11.914 0 21.554 9.668 21.554 21.62v257.8l21.428-21.494h-300.001l21.429 21.494v-300.914l-21.429 21.495h257.018zM597.714 80.75v343.902h342.858v-279.294c0-35.697-28.833-64.608-64.412-64.608h-278.446zM919.143 639.592l-21.428-21.494v300.915l21.428-21.495h-300.001l21.429 21.495v-300.915l-21.429 21.494h300.001zM597.714 596.604v343.903h342.858v-343.903h-342.858zM490.572 403.402c0 11.871 9.594 21.494 21.428 21.494s21.428-9.623 21.428-21.494v-236.678c0-11.871-9.594-21.494-21.428-21.494s-21.428 9.623-21.428 21.494v236.678zM576.286 660.861c0-11.871-9.593-21.494-21.428-21.494-11.834 0-21.428 9.623-21.428 21.494v258.152c0 11.871 9.594 21.494 21.428 21.494 11.835 0 21.428-9.623 21.428-21.494v-258.152zM490.572 747.061c0-11.872-9.594-21.494-21.428-21.494-11.835 0-21.428 9.623-21.428 21.494v171.952c0 11.871 9.593 21.494 21.428 21.494 11.834 0 21.428-9.623 21.428-21.494v-171.952zM940.572 532.122c11.834 0 21.428-9.623 21.428-21.494 0-11.872-9.594-21.494-21.428-21.494h-857.143c-11.834-0.001-21.428 9.623-21.428 21.494s9.594 21.494 21.428 21.494h857.143z" p-id="32331" fill="#ffffff"></path></svg>