<?xml version="1.0" standalone="no"?><!DOCTYPE svg PUBLIC "-//W3C//DTD SVG 1.1//EN" "http://www.w3.org/Graphics/SVG/1.1/DTD/svg11.dtd"><svg t="1581405858325" class="icon" viewBox="0 0 1024 1024" version="1.1" xmlns="http://www.w3.org/2000/svg" p-id="33111" xmlns:xlink="http://www.w3.org/1999/xlink" width="200" height="200"><defs><style type="text/css"></style></defs><path d="M113.777778 142.222222a28.444444 28.444444 0 0 1 28.444444-28.444444h227.555556a28.444444 28.444444 0 0 1 0 56.888889H170.666667v199.111111a28.444444 28.444444 0 0 1-56.888889 0V142.222222zM85.333333 540.444444a28.444444 28.444444 0 0 1 0-56.888888h853.333334a28.444444 28.444444 0 0 1 0 56.888888H85.333333zM910.222222 142.222222v227.555556a28.444444 28.444444 0 0 1-56.888889 0V170.666667h-199.111111a28.444444 28.444444 0 0 1 0-56.888889h227.555556a28.444444 28.444444 0 0 1 28.444444 28.444444z m-56.888889 711.111111v-199.111111a28.444444 28.444444 0 0 1 56.888889 0v227.555556a28.444444 28.444444 0 0 1-28.444444 28.444444h-227.555556a28.444444 28.444444 0 0 1 0-56.888889h199.111111zM113.777778 881.777778v-227.555556a28.444444 28.444444 0 0 1 56.888889 0v199.111111h199.111111a28.444444 28.444444 0 0 1 0 56.888889H142.222222a28.444444 28.444444 0 0 1-28.444444-28.444444z" p-id="33112" data-spm-anchor-id="a313x.7781069.0.i33" fill="#2a2b2f" class="selected"></path></svg>