<?xml version="1.0" standalone="no"?><!DOCTYPE svg PUBLIC "-//W3C//DTD SVG 1.1//EN" "http://www.w3.org/Graphics/SVG/1.1/DTD/svg11.dtd"><svg t="1581405553020" class="icon" viewBox="0 0 1024 1024" version="1.1" xmlns="http://www.w3.org/2000/svg" p-id="22324" xmlns:xlink="http://www.w3.org/1999/xlink" width="200" height="200"><defs><style type="text/css"></style></defs><path d="M928.263877 667.521969c-29.050092-88.898954-89.119508-143.596308-178.806154-154.813046-97.0752-12.130462-180.507569 20.873846-244.153108 95.184739-127.228062 9.4208-206.863754 77.288369-220.128492 196.702523-9.499569 85.4016 12.996923 157.412431 65.378462 211.290584H140.555815a94.523077 94.523077 0 0 1-94.523077-94.523077v-819.2a94.523077 94.523077 0 0 1 94.523077-94.523077h693.169231a94.523077 94.523077 0 0 1 94.523077 94.523077v565.358277z m-677.415385-423.573661h362.338462a31.507692 31.507692 0 1 0 0-63.015385h-362.338462a31.507692 31.507692 0 1 0 0 63.015385z m15.753846 173.292307h189.046154a31.507692 31.507692 0 1 0 0-63.015384h-189.046154a31.507692 31.507692 0 1 0 0 63.015384z m199.128616 599.11877a31.507692 31.507692 0 0 1-14.871631-3.749416c-78.911015-42.267569-113.270154-109.284431-103.061661-201.050584 10.507815-94.523077 73.5232-141.784615 189.046153-141.784616 52.507569-73.5232 120.784738-105.030892 204.8-94.523077 84.015262 10.492062 131.2768 73.507446 141.784616 189.046154 63.015385 31.507692 94.523077 73.507446 94.523077 126.030769 0 50.475323-29.113108 91.246277-87.339323 122.312862a31.507692 31.507692 0 0 1-14.840123 3.717908H465.730954z" fill="#808080" p-id="22325" data-spm-anchor-id="a313x.7781069.0.i18" class=""></path></svg>