<?xml version="1.0" standalone="no"?><!DOCTYPE svg PUBLIC "-//W3C//DTD SVG 1.1//EN" "http://www.w3.org/Graphics/SVG/1.1/DTD/svg11.dtd"><svg t="1581405664273" class="icon" viewBox="0 0 1024 1024" version="1.1" xmlns="http://www.w3.org/2000/svg" p-id="26406" xmlns:xlink="http://www.w3.org/1999/xlink" width="200" height="200"><defs><style type="text/css"></style></defs><path d="M768 256h170.666667a85.333333 85.333333 0 0 1 85.333333 85.333333v85.333334L512 512 0 426.666667V341.333333a85.333333 85.333333 0 0 1 85.333333-85.333333h170.666667V85.333333a85.333333 85.333333 0 0 1 85.333333-85.333333h341.333334a85.333333 85.333333 0 0 1 85.333333 85.333333v170.666667zM426.666667 170.666667v85.333333h170.666666V170.666667H426.666667z m85.333333 426.666666l512-85.333333v426.666667a85.333333 85.333333 0 0 1-85.333333 85.333333H85.333333a85.333333 85.333333 0 0 1-85.333333-85.333333V512l512 85.333333z" p-id="26407" data-spm-anchor-id="a313x.7781069.0.i21" class="selected" fill="#808080"></path></svg>