<?xml version="1.0" standalone="no"?><!DOCTYPE svg PUBLIC "-//W3C//DTD SVG 1.1//EN" "http://www.w3.org/Graphics/SVG/1.1/DTD/svg11.dtd"><svg t="1581406351826" class="icon" viewBox="0 0 1024 1024" version="1.1" xmlns="http://www.w3.org/2000/svg" p-id="39099" xmlns:xlink="http://www.w3.org/1999/xlink" width="200" height="200"><defs><style type="text/css"></style></defs><path d="M902.06208 145.61792h-76.39552V83.34848C825.66656 43.03872 792.86784 10.24 752.55808 10.24H121.93792C81.62816 10.24 48.82944 43.03872 48.82944 83.34848V805.2736c0 40.31488 32.79872 73.1136 73.10848 73.1136h76.38016v62.26944c0 40.30976 32.79872 73.10848 73.10848 73.10848h630.6304c40.31488 0 73.1136-32.79872 73.1136-73.10848V218.7264c0-40.30976-32.79872-73.10848-73.10848-73.10848z m-630.63552 0c-40.30976 0-73.10848 32.79872-73.10848 73.10848v592.27136H121.93792a5.7344 5.7344 0 0 1-5.72416-5.72416V83.34848a5.7344 5.7344 0 0 1 5.72416-5.72416h630.62016a5.7344 5.7344 0 0 1 5.72416 5.72416v62.26944H271.42656zM265.69728 218.7264a5.7344 5.7344 0 0 1 5.72928-5.72928h630.6304a5.7344 5.7344 0 0 1 5.72416 5.72928v721.92512c0 3.15904-2.56512 5.72416-5.71904 5.72416H271.42656a5.7344 5.7344 0 0 1-5.72928-5.72416V218.7264z" p-id="39100" fill="#2a2b2f"></path><path d="M403.65568 759.82336h177.76128a33.73056 33.73056 0 0 0 33.69472-33.69472 33.73056 33.73056 0 0 0-33.69472-33.6896H403.65568a33.73056 33.73056 0 0 0-33.6896 33.6896 33.72544 33.72544 0 0 0 33.6896 33.69472zM403.65568 429.0048h340.35712a33.73056 33.73056 0 0 0 33.69472-33.6896 33.73056 33.73056 0 0 0-33.69472-33.6896H403.65568a33.73056 33.73056 0 0 0-33.6896 33.6896 33.72544 33.72544 0 0 0 33.6896 33.6896zM403.65568 591.32928h340.35712c18.58048 0 33.69472-15.11424 33.69472-33.69472s-15.11424-33.69472-33.69472-33.69472H403.65568c-18.57536 0-33.6896 15.11424-33.6896 33.69472s15.10912 33.69472 33.6896 33.69472z" p-id="39101" fill="#2a2b2f"></path></svg>