<?xml version="1.0" standalone="no"?><!DOCTYPE svg PUBLIC "-//W3C//DTD SVG 1.1//EN" "http://www.w3.org/Graphics/SVG/1.1/DTD/svg11.dtd"><svg t="1581406188110" class="icon" viewBox="0 0 1024 1024" version="1.1" xmlns="http://www.w3.org/2000/svg" p-id="646" xmlns:xlink="http://www.w3.org/1999/xlink" width="200" height="200"><defs><style type="text/css"></style></defs><path d="M136 384h56c4.4 0 8-3.6 8-8V200h176c4.4 0 8-3.6 8-8v-56c0-4.4-3.6-8-8-8H196c-37.6 0-68 30.4-68 68v180c0 4.4 3.6 8 8 8z m512-184h176v176c0 4.4 3.6 8 8 8h56c4.4 0 8-3.6 8-8V196c0-37.6-30.4-68-68-68H648c-4.4 0-8 3.6-8 8v56c0 4.4 3.6 8 8 8zM376 824H200V648c0-4.4-3.6-8-8-8h-56c-4.4 0-8 3.6-8 8v180c0 37.6 30.4 68 68 68h180c4.4 0 8-3.6 8-8v-56c0-4.4-3.6-8-8-8z m512-184h-56c-4.4 0-8 3.6-8 8v176H648c-4.4 0-8 3.6-8 8v56c0 4.4 3.6 8 8 8h180c37.6 0 68-30.4 68-68V648c0-4.4-3.6-8-8-8z m16-164H120c-4.4 0-8 3.6-8 8v56c0 4.4 3.6 8 8 8h784c4.4 0 8-3.6 8-8v-56c0-4.4-3.6-8-8-8z" p-id="647" fill="#2a2b2f" data-spm-anchor-id="a313x.7781069.0.i1" class="selected"></path></svg>