<?xml version="1.0" standalone="no"?><!DOCTYPE svg PUBLIC "-//W3C//DTD SVG 1.1//EN" "http://www.w3.org/Graphics/SVG/1.1/DTD/svg11.dtd"><svg t="1581480001574" class="icon" viewBox="0 0 1024 1024" version="1.1" xmlns="http://www.w3.org/2000/svg" p-id="1972" width="32" height="32" xmlns:xlink="http://www.w3.org/1999/xlink"><defs><style type="text/css"></style></defs><path d="M512 0C229.684434 0 0 229.684434 0 512s229.684434 512 512 512 512-229.659759 512-512S794.315566 0 512 0z m0 945.226024C273.111904 945.226024 78.773976 750.875759 78.773976 512S273.111904 78.773976 512 78.773976 945.226024 273.111904 945.226024 512 750.888096 945.226024 512 945.226024z" p-id="1973" fill="#8a8a8a"></path><path d="M774.56347 472.606843h-223.182651v-288.817349a39.380819 39.380819 0 1 0-78.761638 0v328.173494A39.479518 39.479518 0 0 0 512 551.380819h262.56347a39.393157 39.393157 0 0 0 0-78.773976z" p-id="1974" fill="#8a8a8a"></path></svg>