<?xml version="1.0" standalone="no"?><!DOCTYPE svg PUBLIC "-//W3C//DTD SVG 1.1//EN" "http://www.w3.org/Graphics/SVG/1.1/DTD/svg11.dtd"><svg t="1581483272983" class="icon" viewBox="0 0 1024 1024" version="1.1" xmlns="http://www.w3.org/2000/svg" p-id="2311" width="32" height="32" xmlns:xlink="http://www.w3.org/1999/xlink"><defs><style type="text/css"></style></defs><path d="M512 959.978c17.672 0 31.999-14.326 31.999-31.999S529.672 895.98 512 895.98s-31.999 14.327-31.999 32 14.327 31.998 31.999 31.998zM304.01 96.02c-26.509 0-47.998 21.49-47.998 47.998v671.967c0 26.51 21.49 47.998 47.998 47.998h415.98c26.509 0 47.997-21.49 47.997-47.998V144.017c0-26.509-21.49-47.998-47.997-47.998H304.01z m-16-63.997h447.98c53.016 0 95.995 42.98 95.995 95.996V895.98c0 53.017-42.98 95.996-95.996 95.996H288.011c-53.017 0-95.996-42.98-95.996-95.996V128.02c0-53.018 42.98-95.996 95.996-95.996z" p-id="2312" fill="#8a8a8a"></path></svg>