<?xml version="1.0" standalone="no"?><!DOCTYPE svg PUBLIC "-//W3C//DTD SVG 1.1//EN" "http://www.w3.org/Graphics/SVG/1.1/DTD/svg11.dtd"><svg t="1581486825141" class="icon" viewBox="0 0 1024 1024" version="1.1" xmlns="http://www.w3.org/2000/svg" p-id="12258" width="48" height="48" xmlns:xlink="http://www.w3.org/1999/xlink"><defs><style type="text/css"></style></defs><path d="M332.507429 0.365714c10.020571 0 19.602286 3.949714 26.697142 10.898286l2.56 2.706286L501.76 179.2h443.977143c42.422857 0 76.726857 34.304 76.726857 76.580571v689.883429c0 42.276571-34.377143 76.653714-76.653714 76.653714H77.019429c-42.276571 0-76.653714-34.377143-76.653715-76.653714V38.765714C0.365714 19.017143 15.36 2.413714 35.108571 0.512L38.765714 0.365714h293.814857zM511.341714 396.434286a38.326857 38.326857 0 0 0-38.253714 38.326857v114.907428H358.107429l-3.657143 0.219429a38.326857 38.326857 0 0 0-34.669715 38.107429l0.146286 3.657142a38.326857 38.326857 0 0 0 38.180572 34.669715h114.980571v114.980571a38.326857 38.326857 0 0 0 76.580571 0V626.322286h114.980572l3.657143-0.146286a38.326857 38.326857 0 0 0 34.669714-38.180571l-0.146286-3.657143a38.326857 38.326857 0 0 0-38.180571-34.669715H549.668571V434.761143a38.326857 38.326857 0 0 0-38.326857-38.326857zM314.733714 77.019429h-237.714285v102.253714h324.242285L314.733714 77.019429z" fill="#24a3d2" p-id="12259"></path></svg>