<?xml version="1.0" standalone="no"?><!DOCTYPE svg PUBLIC "-//W3C//DTD SVG 1.1//EN" "http://www.w3.org/Graphics/SVG/1.1/DTD/svg11.dtd"><svg t="1581406315770" class="icon" viewBox="0 0 1024 1024" version="1.1" xmlns="http://www.w3.org/2000/svg" p-id="1436" xmlns:xlink="http://www.w3.org/1999/xlink" width="200" height="200"><defs><style type="text/css"></style></defs><path d="M878.1 218.4H508.4s-14.6-87.2-93.3-87.2H145.9c-27 0-48.9 21.9-48.9 48.9v663.8c0 27 21.9 48.9 48.9 48.9h732.2c27 0 48.9-21.9 48.9-48.9V267.3c0-27-21.9-48.9-48.9-48.9zM653.5 558.7H529v124.6c0 9.4-7.6 17-17 17s-17-7.6-17-17V558.7H370.5c-9.4 0-17-7.6-17-17s7.6-17 17-17H495V400.3c0-9.4 7.6-17 17-17s17 7.6 17 17v124.6h124.6c9.4 0 17 7.6 17 17-0.1 9.3-7.7 16.8-17.1 16.8z" p-id="1437" fill="#2a2b2f"></path></svg>