<?xml version="1.0" standalone="no"?><!DOCTYPE svg PUBLIC "-//W3C//DTD SVG 1.1//EN" "http://www.w3.org/Graphics/SVG/1.1/DTD/svg11.dtd"><svg t="1581407392843" class="icon" viewBox="0 0 1024 1024" version="1.1" xmlns="http://www.w3.org/2000/svg" p-id="4250" data-spm-anchor-id="a313x.7781069.0.i23" xmlns:xlink="http://www.w3.org/1999/xlink" width="200" height="200"><defs><style type="text/css"></style></defs><path d="M810.72 343.73c-12.64-6.73-25.18-10.36-59.72-10.36l-552.47 0.05c-29.62 0.44-41.33 4-53.14 10.31A70.5 70.5 0 0 0 116 373.06c-6.77 12.64-10.36 25.18-10.36 59.76v164.59c0.44 29.63 4 41.33 10.32 53.14a70.5 70.5 0 0 0 29.32 29.33c12.64 6.76 25.18 10.36 59.76 10.36h585.6a59.77 59.77 0 0 0 59.77-59.77V432.82c0-34.58-3.61-47.12-10.36-59.76a70.45 70.45 0 0 0-29.33-29.33z m8.67 286.73a28.75 28.75 0 0 1-28.74 28.74H205.11l-11.18-0.13c-18.44-0.48-26.11-2.37-33.94-6.56a39.4 39.4 0 0 1-16.59-16.6c-4.62-8.62-6.32-16.58-6.65-39V432.78l0.12-11.18c0.48-18.43 2.38-26.1 6.58-33.93A39.36 39.36 0 0 1 160 371.1c8.62-4.61 16.58-6.31 39-6.65h552l11.2 0.13c18.44 0.48 26.11 2.38 33.94 6.57a39.53 39.53 0 0 1 16.59 16.6c4.18 7.83 6.08 15.5 6.56 33.93l0.14 11.19zM881.48 457.5v120.2a62.08 62.08 0 0 0 0-120.2z" p-id="4251" data-spm-anchor-id="a313x.7781069.0.i20" class="selected" fill="#ffffff"></path><path d="M167.73 395.43m15.52 0l589.58 0q15.52 0 15.52 15.52l0 201.69q0 15.52-15.52 15.52l-589.58 0q-15.52 0-15.52-15.52l0-201.69q0-15.52 15.52-15.52Z" p-id="4252" data-spm-anchor-id="a313x.7781069.0.i19" class="selected" fill="#ffffff"></path></svg>