<?xml version="1.0" standalone="no"?><!DOCTYPE svg PUBLIC "-//W3C//DTD SVG 1.1//EN" "http://www.w3.org/Graphics/SVG/1.1/DTD/svg11.dtd"><svg t="1581405689075" class="icon" viewBox="0 0 1260 1024" version="1.1" xmlns="http://www.w3.org/2000/svg" p-id="27371" xmlns:xlink="http://www.w3.org/1999/xlink" width="246.09375" height="200"><defs><style type="text/css"></style></defs><path d="M1122.068 825.423H177.27c-76.13 0-138.122-53.288-138.122-118.784V118.784C39.188 53.287 101.218 0 177.31 0h944.718c76.13 0 138.083 53.287 138.083 118.784v587.855c0 65.496-61.952 118.784-138.083 118.784zM177.27 75.028c-28.081 0-50.885 19.653-50.885 43.756v587.855c0 24.143 22.804 43.717 50.885 43.717h944.719c28.081 0 50.885-19.574 50.885-43.717V118.784c0-24.103-22.804-43.717-50.885-43.717h-944.68z m877.726 947.24H219.687a46.434 46.434 0 0 1 0-92.791h835.309a46.395 46.395 0 1 1 0 92.79z" fill="#ffffff" p-id="27372"></path><path d="M589.47 958.858V819.594a46.395 46.395 0 1 1 92.83 0v139.224a46.395 46.395 0 1 1-92.83 0z" fill="#ffffff" p-id="27373"></path></svg>