<?xml version="1.0" standalone="no"?><!DOCTYPE svg PUBLIC "-//W3C//DTD SVG 1.1//EN" "http://www.w3.org/Graphics/SVG/1.1/DTD/svg11.dtd"><svg t="1581405733571" class="icon" viewBox="0 0 1024 1024" version="1.1" xmlns="http://www.w3.org/2000/svg" p-id="29964" xmlns:xlink="http://www.w3.org/1999/xlink" width="200" height="200"><defs><style type="text/css"></style></defs><path d="M1004.231111 432.924444L825.031111 113.208889C798.293333 65.991111 744.817778 34.133333 691.342222 34.133333h-358.4C275.484444 34.133333 225.991111 65.991111 199.253333 113.208889L20.053333 432.924444c-26.737778 47.217778-26.737778 110.364444 0 158.151112l175.217778 319.715555C222.008889 958.008889 275.484444 989.866667 328.96 989.866667h358.4c53.475556 0 102.968889-27.875556 137.102222-79.075556l179.2-319.715555c27.306667-47.217778 27.306667-110.933333 0.568889-158.151112z m-92.728889 123.448889l-161.564444 288.426667c-17.066667 25.031111-44.942222 42.666667-75.662222 42.666667H350.577778c-30.72 0-62.008889-14.222222-75.662222-42.666667L112.782222 556.373333c-13.653333-28.444444-13.653333-60.302222 0-88.746666l161.564445-288.426667c17.066667-25.031111 44.942222-42.666667 75.662222-42.666667h323.697778c30.72 0 62.008889 14.222222 75.662222 42.666667l161.564444 288.426667c14.222222 28.444444 14.222222 60.302222 0.568889 88.746666z" fill="#ffffff" p-id="29965"></path><path d="M512.142222 739.555556c-125.155556 0-227.555556-102.4-227.555555-227.555556s102.4-227.555556 227.555555-227.555556 227.555556 102.4 227.555556 227.555556-102.4 227.555556-227.555556 227.555556z m0-369.777778c-79.644444 0-142.222222 62.577778-142.222222 142.222222s62.577778 142.222222 142.222222 142.222222 142.222222-62.577778 142.222222-142.222222-62.577778-142.222222-142.222222-142.222222z" fill="#ffffff" p-id="29966"></path></svg>