<?xml version="1.0" standalone="no"?><!DOCTYPE svg PUBLIC "-//W3C//DTD SVG 1.1//EN" "http://www.w3.org/Graphics/SVG/1.1/DTD/svg11.dtd"><svg t="1581407361003" class="icon" viewBox="0 0 1024 1024" version="1.1" xmlns="http://www.w3.org/2000/svg" p-id="3397" xmlns:xlink="http://www.w3.org/1999/xlink" width="200" height="200"><defs><style type="text/css"></style></defs><path d="M717.407368 513.75794h-170.520171V224.576824a36.477253 36.477253 0 0 0-36.477254-36.477253 36.037768 36.037768 0 0 0-36.037768 36.477253v326.097854a36.037768 36.037768 0 0 0 36.037768 36.477253h206.997425a36.477253 36.477253 0 0 0 36.037768-36.477253 36.477253 36.477253 0 0 0-36.037768-36.916738zM846.176467 215.787124a473.764807 473.764807 0 0 0-669.335622 0 473.325322 473.325322 0 0 0 0 668.896138 472.885837 472.885837 0 0 0 668.456652 0A471.567382 471.567382 0 0 0 846.176467 219.742489v-2.63691zM793.43827 835.021459a400.370815 400.370815 0 0 1-566.056653 0 400.370815 400.370815 0 0 1 0-566.496137 399.93133 399.93133 0 0 1 566.056653 0 400.370815 400.370815 0 0 1 0 566.496137z m210.073819-615.27897a538.369099 538.369099 0 0 0-34.279828-43.948498c-12.745064-15.381974-25.490129-29.445494-38.235193-43.948497s-27.687554-25.929614-43.948498-38.235194a504.528755 504.528755 0 0 0-43.948498-33.840343A455.745923 455.745923 0 0 0 793.43827 27.687554c-15.821459-8.350215-35.158798-17.139914-51.419743-24.611159a36.916738 36.916738 0 0 0-47.903863 18.897854 37.356223 37.356223 0 0 0 20.216309 47.903863c15.381974 6.15279 29.884979 13.624034 43.948498 21.534764s29.445494 17.139914 43.948498 26.369098a498.375966 498.375966 0 0 1 39.993133 29.884979 439.484979 439.484979 0 0 1 37.356223 33.840343c12.305579 12.745064 23.732189 24.611159 33.840344 36.916738s19.776824 25.490129 29.445493 39.993133A36.477253 36.477253 0 1 0 1003.512089 219.742489z m-925.555365 39.553648A356.422318 356.422318 0 0 1 107.841703 219.742489a498.815451 498.815451 0 0 1 35.158798-37.795708c12.305579-12.305579 24.611159-23.732189 36.477254-33.840343s25.929614-20.655794 40.872103-30.324464 28.127039-18.018884 43.948497-26.369098a435.529614 435.529614 0 0 1 43.948498-20.655794 36.916738 36.916738 0 0 0 18.458369-48.343348 36.916738 36.916738 0 0 0-47.903862-19.337339C262.10093 10.108155 245.400501 18.018884 230.897497 26.808584a516.39485 516.39485 0 0 0-49.661803 30.324463c-14.942489 9.66867-30.324464 21.534764-43.948497 33.840344A514.197425 514.197425 0 0 0 90.262304 131.845494c-12.745064 13.184549-25.929614 27.248069-38.674678 43.948497s-23.732189 27.248069-34.279829 43.948498a36.477253 36.477253 0 0 0 60.648927 40.872103z" fill="#ffffff" p-id="3398" data-spm-anchor-id="a313x.7781069.0.i16" class="selected"></path></svg>