<?xml version="1.0" standalone="no"?><!DOCTYPE svg PUBLIC "-//W3C//DTD SVG 1.1//EN" "http://www.w3.org/Graphics/SVG/1.1/DTD/svg11.dtd"><svg t="1581330103303" class="icon" viewBox="0 0 1024 1024" version="1.1" xmlns="http://www.w3.org/2000/svg" p-id="10933" xmlns:xlink="http://www.w3.org/1999/xlink" width="200" height="200"><defs><style type="text/css"></style></defs><path d="M511.674077 957.300902c-60.165288 0-118.537743-11.783371-173.495426-35.023678-53.073776-22.443152-100.731192-54.567803-141.647067-95.484701-40.916898-40.915875-73.042573-88.574315-95.485725-141.647067-23.239284-54.957683-35.022655-113.330138-35.022655-173.495426s11.783371-118.53672 35.023678-173.494403c22.442128-53.073776 54.567803-100.731192 95.484701-141.647067 40.915875-40.915875 88.573291-73.042573 141.647067-95.485725 54.957683-23.239284 113.330138-35.022655 173.495426-35.022655 60.164265 0 118.535697 11.783371 173.493379 35.022655 53.072753 22.443152 100.731192 54.568826 141.647067 95.485725s73.042573 88.573291 95.486748 141.647067c23.240307 54.957683 35.023678 113.329115 35.023678 173.494403s-11.783371 118.537743-35.023678 173.495426c-22.444175 53.072753-54.56985 100.731192-95.486748 141.647067s-88.574315 73.04155-141.647067 95.484701C630.209774 945.518554 571.838342 957.300902 511.674077 957.300902zM511.674077 112.912629c-219.865523 0-398.739447 178.8729-398.739447 398.738423 0 219.865523 178.873923 398.739447 398.739447 398.739447s398.739447-178.873923 398.739447-398.739447C910.414547 291.785529 731.540623 112.912629 511.674077 112.912629z" p-id="10934"></path><path d="M373.957529 753.894236l44.520983-267.562848 225.281883-199.889563L583.428308 581.568449 373.957529 753.894236zM462.0294 510.404666 440.767144 638.187981l100.029204-82.291215 28.813233-140.947126L462.0294 510.404666z" p-id="10935"></path></svg>