<?xml version="1.0" standalone="no"?><!DOCTYPE svg PUBLIC "-//W3C//DTD SVG 1.1//EN" "http://www.w3.org/Graphics/SVG/1.1/DTD/svg11.dtd"><svg t="1581329956607" class="icon" viewBox="0 0 1024 1024" version="1.1" xmlns="http://www.w3.org/2000/svg" p-id="2601" xmlns:xlink="http://www.w3.org/1999/xlink" width="200" height="200"><defs><style type="text/css"></style></defs><path d="M512 135.04c-247.68 0-448 167.04-448 373.12a341.12 341.12 0 0 0 117.12 250.88l-42.24 131.2a44.16 44.16 0 0 0 44.16 44.8 51.2 51.2 0 0 0 16.64 0l172.8-69.12A520.96 520.96 0 0 0 512 881.28c247.68 0 448-167.04 448-373.12S759.68 135.04 512 135.04z m0 682.24a469.12 469.12 0 0 1-122.88-16 49.92 49.92 0 0 0-16.64 0 57.6 57.6 0 0 0-23.68 4.48l-131.84 52.48 24.96-77.44a64 64 0 0 0-17.92-64 277.12 277.12 0 0 1-96-208.64c0-170.24 172.16-309.12 384-309.12s384 138.88 384 309.12-172.16 309.12-384 309.12z" p-id="2602" data-spm-anchor-id="a313x.7781069.0.i0" class="selected" fill="#2c2c2c"></path><path d="M320 512a64 64 0 1 0 128 0 64 64 0 1 0-128 0zM576 512a64 64 0 1 0 128 0 64 64 0 1 0-128 0z" p-id="2603"></path></svg>