<?xml version="1.0" standalone="no"?><!DOCTYPE svg PUBLIC "-//W3C//DTD SVG 1.1//EN" "http://www.w3.org/Graphics/SVG/1.1/DTD/svg11.dtd"><svg t="1581330210384" class="icon" viewBox="0 0 1024 1024" version="1.1" xmlns="http://www.w3.org/2000/svg" p-id="13898" data-spm-anchor-id="a313x.7781069.0.i13" xmlns:xlink="http://www.w3.org/1999/xlink" width="200" height="200"><defs><style type="text/css"></style></defs><path d="M848.180565 201.796267a477.525333 477.525333 0 1 1-675.293866 675.293866 477.525333 477.525333 0 0 1 675.293866-675.293866z m-643.754666 643.959466a432.9472 432.9472 0 1 0 612.352-612.283733 432.9472 432.9472 0 0 0-612.352 612.283733z m330.888533-258.730666l-1.501867 177.220266a35.771733 35.771733 0 0 1-36.6592 34.816 35.771733 35.771733 0 0 1-36.113066-35.4304l1.4336-176.059733-176.059734 1.4336a35.771733 35.771733 0 0 1-35.362133-36.113067 35.771733 35.771733 0 0 1 34.816-36.6592l177.220267-1.4336 1.365333-177.288533a35.771733 35.771733 0 0 1 36.727467-34.747733 35.771733 35.771733 0 0 1 36.181333 35.362133l-1.501867 176.059733 176.128-1.4336a35.771733 35.771733 0 0 1 35.293867 36.113067 35.771733 35.771733 0 0 1-34.747733 36.6592l-177.220267 1.4336z" fill="#2c2c2c" p-id="13899" data-spm-anchor-id="a313x.7781069.0.i11" class="selected"></path></svg>